<svg width="458" height="903" viewBox="0 0 458 903" fill="none" xmlns="http://www.w3.org/2000/svg">
<g filter="url(#filter0_d_2296_27768)">
<rect x="48" y="48" width="350" height="795" rx="24" fill="white"/>
</g>
<mask id="mask0_2296_27768" style="mask-type:luminance" maskUnits="userSpaceOnUse" x="48" y="48" width="350" height="795">
<rect x="48" y="48" width="350" height="795" rx="24" fill="white"/>
</mask>
<g mask="url(#mask0_2296_27768)">
<g opacity="0.04">
<path d="M614.216 794.518C587.055 789.056 583.814 768.629 579.698 742.739C575.068 713.834 569.358 677.874 527.792 649.196C506.958 634.857 486.998 625.867 466.73 621.714C448.622 618.015 430.617 618.243 411.789 622.453C376.808 630.305 343.781 651.245 311.784 671.444C281.844 690.392 250.876 710.022 217.541 719.695C199.639 724.93 182.56 726.864 165.326 725.726C145.984 724.418 126.95 719.24 107.196 709.851C72.6779 693.464 38.3656 687.774 5.23639 692.895C-0.675449 693.829 -6.53931 695.082 -12.3552 696.704C-12.7218 696.806 -12.9744 697.141 -12.9744 697.521C-12.9744 698.084 -12.4372 698.492 -11.8939 698.344C-6.13202 696.776 -0.364777 695.513 5.4936 694.602C38.3656 689.481 72.3692 695.171 106.63 711.388C130.963 722.938 153.495 727.718 174.74 727.718C226.029 727.718 269.807 700.008 312.556 672.98C345.891 651.87 377.322 631.956 412.098 624.16C430.72 619.95 448.519 619.722 466.421 623.421C486.535 627.517 506.341 636.451 526.969 650.676C545.232 663.25 567.969 678.898 578.206 743.024C580.315 756.395 582.167 767.946 587.055 777.22C592.456 787.519 601.047 793.551 613.959 796.168C652.181 803.906 674.919 816.14 685.465 834.689C687.887 838.899 689.691 843.477 690.924 848.322C691.013 848.669 691.324 848.914 691.683 848.914C692.185 848.914 692.555 848.445 692.432 847.958C691.152 842.917 689.316 838.222 686.751 833.779C675.948 814.831 652.901 802.37 614.216 794.518Z" fill="#848484"/>
<path d="M584.292 813.194C551.939 807.848 548.905 797.098 542.321 773.665C536.56 753.246 527.868 722.305 493.869 677.429C448.143 617.026 399.639 654.792 343.472 698.531C286.533 742.895 221.982 793.117 143.183 756.943C112.991 743.065 82.5409 736.24 52.6056 736.524C30.5256 736.75 8.6478 740.889 -12.4263 748.83C-12.7563 748.954 -12.9744 749.27 -12.9744 749.623C-12.9744 750.218 -12.3771 750.629 -11.8197 750.419C9.06571 742.573 30.6869 738.511 52.6056 738.288C82.3352 737.946 112.579 744.828 142.566 758.593C178.056 774.916 213.907 775.201 252.072 759.559C285.453 745.852 315.388 722.533 344.347 700.01C372.122 678.396 398.354 657.978 422.888 650.697C449.995 642.621 472.163 651.494 492.686 678.624C526.479 723.272 535.12 753.986 540.829 774.291C547.413 797.724 550.756 809.497 584.086 815.014C603.58 818.256 615.771 826.219 620.348 838.675C621.406 841.599 622.059 844.77 622.35 848.19C622.384 848.597 622.722 848.913 623.13 848.913C623.575 848.913 623.93 848.54 623.898 848.096C623.64 844.482 622.937 841.118 621.788 838.049C616.953 824.854 604.352 816.55 584.292 813.194Z" fill="#848484"/>
<path d="M424.428 736.335C410.134 725.827 390.954 726.168 367.456 737.528C348.791 746.502 327.349 762.406 303.696 784.672C280.156 806.913 259.055 831.203 245.526 847.619C245.099 848.137 245.471 848.913 246.142 848.913C246.38 848.913 246.603 848.81 246.754 848.626C260.235 832.215 281.209 808.058 304.673 785.922C328.223 763.713 349.511 747.922 368.022 739.005C391.006 727.928 409.671 727.474 423.503 737.698C455.64 761.384 472.711 801.371 487.776 836.644C489.506 840.629 491.141 844.562 492.818 848.392C492.941 848.674 493.22 848.856 493.528 848.856C494.089 848.856 494.464 848.28 494.239 847.767C492.548 843.908 490.856 839.954 489.165 835.906C474.099 800.462 456.925 760.248 424.428 736.335Z" fill="#848484"/>
<path d="M383.567 796.054C376.907 790.78 368.299 790.895 358.002 796.398C349.907 800.755 340.736 808.438 330.746 819.273C321.718 829.104 313.564 839.759 307.939 847.629C307.553 848.168 307.941 848.913 308.604 848.913C308.867 848.913 309.108 848.796 309.262 848.582C325.369 826.162 361.743 780.886 382.645 797.43C396.101 808.113 404.021 829.216 410.845 848.401C410.955 848.709 411.246 848.913 411.573 848.913C412.106 848.913 412.48 848.387 412.302 847.884C405.419 828.485 397.461 807.039 383.567 796.054Z" fill="#848484"/>
<path d="M129.893 795.151C116.672 791.412 102.987 787.56 90.6909 782.971C60.183 771.47 24.839 781.158 0.556137 791.299C-4.05266 793.209 -8.42277 795.224 -12.5082 797.243C-12.794 797.384 -12.9744 797.675 -12.9744 797.994C-12.9744 798.616 -12.3218 799.022 -11.7628 798.75C-7.73146 796.786 -3.41082 794.789 1.12205 792.885C25.1477 782.858 60.1315 773.283 90.1764 784.614C102.472 789.259 116.208 793.112 129.482 796.851C159.321 805.235 187.514 813.166 189.469 827.556C190.246 833.28 186.894 839.914 179.326 847.553C178.832 848.052 179.179 848.914 179.881 848.914C180.09 848.914 180.293 848.828 180.439 848.678C188.353 840.563 191.827 833.501 191.012 827.273C188.903 811.75 161.585 804.102 129.893 795.151Z" fill="#848484"/>
<path d="M110.111 819.532C99.9483 817.573 87.5781 817.688 76.1832 819.878C55.2388 823.881 14.4112 836.63 -12.3945 845.326C-12.7446 845.44 -12.9744 845.764 -12.9744 846.132C-12.9744 846.709 -12.4216 847.121 -11.8728 846.943C14.9451 838.25 55.6315 825.583 76.4912 821.548C87.7321 819.417 99.897 819.244 109.906 821.203C124.381 824.026 129.462 829.96 131.207 834.511C132.689 838.321 132.435 842.78 130.485 847.796C130.278 848.328 130.663 848.914 131.234 848.914C131.559 848.914 131.852 848.716 131.968 848.413C134.044 842.968 134.237 838.068 132.593 833.82C129.154 824.947 118.478 821.145 110.111 819.532Z" fill="#848484"/>
<path d="M50.3494 505.746C73.6196 523.062 88.807 547.897 102.141 569.827C117.277 594.662 130.405 616.137 150.895 619.611C152.8 619.953 154.756 620.067 156.713 620.067C172.518 620.067 191.309 609.985 215.146 588.738C233.01 572.789 247.889 558.321 261.017 545.505C288.714 518.448 308.741 498.91 330.879 492.588C353.48 486.094 378.294 492.929 416.494 516.113C447.693 535.081 484.915 548.125 518.533 551.884C534.184 553.65 548.393 553.308 559.668 550.802C571.56 548.182 579.901 543.454 584.38 536.676C590.506 527.391 591.999 510.132 564.147 480.569C530.838 445.196 492.946 440.924 452.841 436.424C426.276 433.462 398.784 430.329 371.035 417.968C339.631 404.013 312.396 379.747 287.736 343.919C269.511 317.432 248.249 304.9 226.163 307.691C211.13 309.571 196.354 318.343 182.248 333.665C168.09 349.159 155.323 370.519 144.408 397.177C136.274 416.943 127.316 427.082 116.865 428.107C94.2641 430.329 68.1109 388.291 42.8844 347.621C30.2711 327.286 17.246 306.324 4.83865 291.286C-1.07331 284.117 -6.50733 278.679 -11.6231 274.883C-12.1878 274.464 -12.9744 274.874 -12.9744 275.577C-12.9744 275.856 -12.8456 276.114 -12.6219 276.28C4.63036 289.076 23.3424 319.17 41.5973 348.589C54.2621 368.981 67.3902 390.114 80.0034 405.494C93.4919 421.899 105.024 429.93 115.166 429.93C115.784 429.93 116.402 429.873 117.019 429.816C128.037 428.734 137.458 418.31 145.798 397.918C156.661 371.431 169.274 350.241 183.329 334.919C197.178 319.824 211.645 311.223 226.317 309.4C247.786 306.723 268.636 319.026 286.501 345.001C311.315 381.114 338.807 405.494 370.417 419.563C398.373 432.038 425.967 435.114 452.635 438.133C492.483 442.632 530.117 446.848 563.066 481.822C590.146 510.587 588.91 526.992 583.144 535.707C574.701 548.41 550.607 553.821 518.688 550.232C485.275 546.473 448.259 533.486 417.215 514.632C378.655 491.22 353.531 484.385 330.467 490.993C307.969 497.429 287.839 517.081 259.987 544.308C246.859 557.125 232.032 571.593 214.167 587.485C187.705 611.067 167.678 620.75 151.101 617.959C131.28 614.656 118.358 593.466 103.377 568.916C89.9396 546.872 74.7007 521.923 51.1731 504.379C31.6611 489.853 13.0759 482.562 -4.27379 482.562C-6.9618 482.562 -9.60662 482.754 -12.2478 483.092C-12.6645 483.145 -12.9744 483.502 -12.9744 483.922C-12.9744 484.436 -12.5178 484.829 -12.0083 484.762C7.23876 482.226 28.1716 489.275 50.3494 505.746Z" fill="#848484"/>
<path d="M15.872 672.883C39.6792 673.281 66.3145 678.579 89.8132 683.193C123.493 689.858 150.025 695.099 153.316 683.023C158.253 664.908 142.21 649.926 115.574 625.146C96.4978 607.373 72.6905 585.271 47.2379 553.484C28.1098 529.616 9.03318 518.792 -9.375 521.413C-10.3062 521.553 -11.2722 521.733 -12.3017 521.951C-12.6951 522.034 -12.9744 522.382 -12.9744 522.784C-12.9744 523.336 -12.4617 523.743 -11.9231 523.625C-11.0179 523.426 -10.0936 523.245 -9.16932 523.122C8.72466 520.615 27.2871 531.211 46.1066 554.623C71.6621 586.524 95.4694 608.683 114.597 626.513C140.719 650.837 156.504 665.534 151.877 682.567C148.997 693.162 121.693 687.751 90.1217 681.541C56.2881 674.87 16.6301 667.021 -12.2652 673.585C-12.6533 673.673 -12.9229 674.018 -12.9229 674.416C-12.9229 674.971 -12.4059 675.38 -11.8649 675.259C-3.96771 673.49 5.29294 672.665 15.872 672.883Z" fill="#848484"/>
<path d="M83.4925 664.299C96.8194 664.299 104.303 661.617 105.738 656.198C108.916 644.39 82.416 623.112 66.2699 611.474C43.4603 594.988 16.2937 579.472 1.68531 574.509C-2.85873 572.965 -7.4474 571.869 -11.9558 571.173C-12.466 571.094 -12.9231 571.491 -12.9231 572.007C-12.9231 572.428 -12.6143 572.785 -12.1981 572.851C-7.76541 573.545 -3.24766 574.649 1.22399 576.163C15.7299 581.069 42.7427 596.472 65.3985 612.901C91.7962 632.011 106.302 647.984 104.201 655.685C102.15 663.215 83.9025 664.584 52.7891 659.564C28.2011 655.615 2.58982 648.846 -11.8829 644.386C-12.4273 644.218 -12.9744 644.626 -12.9744 645.196C-12.9744 645.565 -12.743 645.889 -12.3907 645.998C2.07861 650.507 27.8545 657.279 52.5329 661.275C65.091 663.272 75.3425 664.299 83.4925 664.299Z" fill="#848484"/>
<path d="M230.508 340.925C237.856 339.273 244.588 340.698 250.394 345.198C272.437 362.175 286.722 378.695 299.363 393.222C318.786 415.553 334.098 433.213 367.703 443.41C388.924 449.848 398.944 455.773 398.277 461.583C397.763 466.084 390.569 469.673 376.849 472.293C363.541 474.8 344.323 476.338 321.303 476.68C303.935 476.965 285.899 484.428 266.117 499.638C248.852 512.968 232.511 530.344 218.073 545.725C196.748 568.455 178.096 588.337 162.835 588.337C161.345 588.337 159.906 588.166 158.519 587.767C145.93 584.292 135.91 574.437 129.538 559.227C123.115 543.731 120.957 523.735 123.372 501.347C125.582 481.18 132.005 461.185 142.077 443.525C177.891 380.575 207.642 346.052 230.508 340.925ZM236.315 341.951C234.568 341.951 232.717 342.179 230.868 342.577C208.464 347.648 179.021 381.886 143.412 444.437C133.496 461.869 127.123 481.637 124.965 501.575C122.602 523.622 124.709 543.275 131.029 558.486C137.143 573.24 146.804 582.811 158.93 586.115C160.215 586.457 161.551 586.628 162.887 586.628C177.48 586.628 195.927 566.974 216.995 544.528C231.433 529.09 247.825 511.658 265.244 498.271C285.283 482.889 303.627 475.256 321.303 474.971C344.271 474.629 363.387 473.091 376.592 470.584C393.6 467.337 396.53 463.406 396.786 461.356C397.506 454.861 376.438 447.74 367.343 445.006C333.327 434.638 317.861 416.864 298.335 394.361C285.746 379.892 271.513 363.485 249.572 346.566C245.564 343.489 241.145 341.951 236.315 341.951Z" fill="#848484"/>
<path d="M-nan -nanL706 495.449C702.343 491.238 698.172 486.914 693.434 482.589C675.408 466.144 652.542 452.601 625.452 442.302C591.616 429.442 551.085 421.589 504.992 418.972C478.623 417.492 428.049 412.314 385.355 394.162C340.395 375.1 315.468 346.933 311.348 310.458C306.558 268.236 311.245 242.061 326.129 228.006C342.403 212.642 371.862 211.959 416.152 226.071C446.899 235.858 471.773 249.287 491.756 260.099C511.481 270.797 527.085 279.218 540.991 280.698C556.081 282.291 567.874 275.52 579.204 258.733C586.415 248.036 592.131 237.907 597.178 228.973C607.324 210.935 614.689 197.904 626.688 193.067C639.358 187.946 656.507 192.271 684.112 207.521C691.482 211.566 698.311 216.059 704.684 220.72C705.23 221.119 706 220.731 706 220.056C706 219.795 705.876 219.55 705.666 219.395C699.22 214.648 692.275 210.124 684.833 205.984C656.816 190.507 639.306 186.182 626.173 191.417C613.659 196.482 606.242 209.683 595.891 228.006C590.895 236.883 585.179 246.954 578.02 257.652C554.741 292.192 531.309 279.503 492.477 258.506C472.443 247.637 447.465 234.151 416.616 224.364C371.759 210.138 341.837 210.878 325.15 226.64C309.855 241.093 305.013 267.781 309.855 310.629C314.078 347.786 339.313 376.408 384.84 395.755C427.74 413.964 478.52 419.142 504.94 420.679C550.879 423.239 591.204 431.092 624.886 443.895C651.769 454.138 674.481 467.567 692.352 483.841C697.073 488.137 701.212 492.433 704.806 496.564C705.217 497.036 706 496.747 706 496.121V495.449L-nan -nanZ" fill="#848484"/>
<path d="M706 459.585C706 459.333 705.889 459.095 705.695 458.934C694.851 449.945 681.84 440.905 667.112 432.368C624.881 407.832 575.089 390.77 526.993 384.379C478.281 377.874 442.737 370.741 415.166 361.839C379.93 350.541 357.709 336.447 347.215 318.872C340.117 306.946 338.573 293.193 342.534 277.901C345.518 266.602 350.97 259.127 359.252 255.076C387.286 241.267 441.039 270.197 488.466 295.704C505.801 305.062 522.21 313.85 536.149 319.899C559.657 330.113 574.111 332.395 584.502 327.431C594.532 322.638 600.293 311.568 608.215 296.218C612.999 286.974 618.4 276.531 626.013 265.005C634.14 252.679 644.428 246.231 656.619 245.832C672.781 245.334 690.25 255.569 704.662 267.117C705.199 267.548 706 267.167 706 266.479C706 266.232 705.885 265.996 705.693 265.841C683.065 247.623 666.758 243.836 656.619 244.12C643.965 244.519 633.266 251.196 624.83 263.978C617.165 275.561 611.764 286.118 606.929 295.362C591.395 325.32 584.296 339.015 536.715 318.301C522.827 312.252 506.469 303.465 489.135 294.164C441.399 268.486 387.286 239.384 358.635 253.535C349.993 257.758 344.077 265.861 341.043 277.501C336.927 293.251 338.522 307.516 345.878 319.899C356.628 337.759 379.107 352.082 414.754 363.494C442.428 372.396 478.075 379.529 526.839 386.034C574.728 392.425 624.315 409.429 666.392 433.852C680.834 442.272 693.811 451.269 704.6 460.239C705.155 460.701 706 460.307 706 459.585Z" fill="#848484"/>
<path d="M377.591 269.848C393.832 265.823 424.413 278.181 468.408 306.469C501.096 327.444 529.416 349.949 529.725 350.176C535.841 355.221 537.948 359.36 536.149 362.534C534.094 365.879 527.463 367.183 518.726 367.183C506.75 367.183 490.715 364.745 476.632 361.627C442.35 354.088 409.662 341.276 389.206 327.387C366.181 311.741 358.369 294.791 366.644 278.352C368.854 273.93 372.554 271.095 377.591 269.848ZM384.118 270.812C381.857 270.812 379.801 271.039 377.899 271.492C373.325 272.626 369.984 275.177 367.98 279.145C363.868 287.308 363.92 295.585 368.186 303.805C372.04 311.288 379.39 318.714 389.978 325.913C410.279 339.689 442.762 352.443 476.889 359.926C491.537 363.157 505.362 365.085 515.796 365.368C530.032 365.765 533.836 363.101 534.813 361.514C536.457 358.736 532.449 354.597 528.8 351.593C527.464 350.516 426.726 270.812 384.118 270.812Z" fill="#848484"/>
<path d="M400.926 299.276C407.62 297.359 422.449 303.053 445.053 316.077C458.074 323.579 470.035 331.525 474.799 334.735C476.25 335.713 477.828 336.64 478.795 338.097C479.308 338.871 479.578 339.772 479.037 340.66C478.367 341.788 476.307 342.183 473.527 342.183C465.906 342.183 452.982 338.912 449.687 338.067C432.541 333.556 416.631 327.073 407.157 320.701C397.631 314.274 394.335 308.015 397.322 302.095C398.043 300.685 399.279 299.727 400.926 299.276ZM403.81 300.629C402.832 300.629 402.007 300.743 401.235 300.968C399.948 301.306 399.124 301.983 398.609 302.942C396.086 307.903 399.176 313.372 407.877 319.236C417.197 325.55 432.953 331.978 449.997 336.432C467.503 340.999 476.874 341.112 477.75 339.702C477.801 339.59 477.698 338.913 476.05 337.617C474.609 336.602 421.986 300.63 403.81 300.629Z" fill="#848484"/>
<path d="M206.524 393.283C219.089 383.207 230.373 379.108 240.015 381.158C247.964 382.865 254.786 388.614 260.325 398.291C265.762 407.741 268.378 418.671 268.019 429.942C267.66 441.156 264.326 451.914 258.428 461.022L256.838 463.47C237.246 493.697 217.038 524.948 172.93 545.555C167.801 547.946 163.595 548.913 160.158 548.913C153.183 548.913 149.336 544.872 147.234 540.716C133.54 513.791 164.467 427.096 206.524 393.283ZM235.04 382.353C226.885 382.353 217.653 386.508 207.446 394.705C188.418 410.018 169.698 438.309 157.389 470.358C145.849 500.414 142.362 527.681 148.567 539.863C152.722 548.003 160.671 549.368 172.314 543.904C216.012 523.468 236.117 492.444 255.556 462.388L257.146 459.941C262.89 451.118 266.121 440.7 266.48 429.827C266.839 418.898 264.274 408.31 259.043 399.202C253.76 389.981 247.247 384.46 239.759 382.866C238.22 382.524 236.63 382.353 235.04 382.353Z" fill="#848484"/>
<path d="M207.267 423.595C214.621 417.72 221.203 415.324 226.912 416.522C231.591 417.491 235.654 420.857 238.894 426.561C245.322 437.855 244.91 452.229 237.762 463.238C226.397 480.75 214.003 494.097 187.673 506.418C184.485 507.901 181.862 508.529 179.753 508.529C175.743 508.529 173.531 506.304 172.297 503.966C168.749 497.007 170.909 482.29 177.903 465.577C185.205 448.237 196.159 432.493 207.267 423.595ZM223.98 417.947C219.3 417.947 214.054 420.343 208.192 425.021C197.341 433.748 186.542 449.206 179.342 466.319C172.657 482.29 170.445 496.722 173.685 503.167C175.845 507.445 180.371 508.015 187.108 504.878C213.129 492.728 225.317 479.552 236.528 462.269C243.316 451.83 243.727 438.197 237.608 427.53C234.574 422.283 230.923 419.145 226.655 418.233C225.78 418.061 224.906 417.947 223.98 417.947Z" fill="#848484"/>
<path d="M199.354 475.836C200.016 475.836 200.829 475.668 201.795 475.22C209.322 471.749 212.831 467.941 216.085 462.958C218.221 459.711 218.374 455.4 216.441 452.096C215.424 450.36 214.204 449.353 212.729 449.017C211 448.625 208.966 449.353 206.779 451.088C200.117 456.407 194.422 469.621 196.812 474.268C197.168 474.94 197.88 475.836 199.354 475.836Z" fill="#848484" stroke="#575757" stroke-width="5"/>
<path d="M705.846 799.239C691.125 798.498 676.815 796.388 664.153 792.966C647.476 788.46 633.476 781.673 622.564 772.89C609.181 762.111 600.379 748.194 596.313 731.427C590.651 707.872 581.695 685.629 570.422 667.036C557.194 645.192 540.98 628.367 522.142 616.96C487.501 595.915 445.345 593.919 396.91 611.029C338.232 631.732 292.576 653.462 259.222 669.374C216.655 689.621 193.184 700.8 187.83 688.537C187.367 687.454 187.316 686.313 187.728 685.058C190.764 675.762 215.934 663.1 245.119 648.5C266.84 637.606 291.495 625.23 310.9 612.112C333.342 596.942 345.129 583.196 346.931 570.136C349.453 551.771 356.144 538.881 366.233 532.893C377.711 526.106 393.41 527.874 412.969 538.14C448.897 556.961 536.605 579.432 589.879 579.432C608.254 579.432 622.564 576.752 629.204 570.307C633.218 566.429 634.351 561.353 632.549 555.193C626.63 534.832 633.476 513.787 648.454 506.315C666.677 497.243 686.74 509.741 704.228 530.329C704.777 530.976 705.846 530.591 705.846 529.743C705.846 529.531 705.77 529.324 705.633 529.161C698.701 520.955 691.67 514.538 684.588 509.908C671.462 501.296 658.388 499.471 647.837 504.775C632.138 512.589 624.931 534.49 631.108 555.706C632.704 561.182 631.726 565.573 628.226 568.995C617.159 579.717 581.386 580.63 530.017 571.448C485.648 563.52 437.83 549.205 413.69 536.543C393.667 526.049 377.505 524.338 365.615 531.353C355.063 537.57 348.115 550.916 345.489 569.851C341.578 598.196 287.789 625.23 244.553 646.903C213.875 662.302 189.632 674.45 186.389 684.431C185.823 686.142 185.875 687.739 186.544 689.222C189.426 695.838 196.478 696.978 209.5 692.929C221.493 689.165 238.479 681.123 259.943 670.914C293.245 655.059 338.901 633.329 397.476 612.626C445.5 595.687 487.244 597.626 521.524 618.386C540.105 629.679 556.165 646.333 569.239 667.891C580.408 686.37 589.313 708.442 594.923 731.769C599.041 748.879 608.049 763.137 621.74 774.145C632.807 783.042 647.013 789.886 663.896 794.506C676.477 797.921 690.645 800.072 705.184 800.797C705.628 800.819 706 800.464 706 800.019V799.394C706 799.308 705.931 799.239 705.846 799.239Z" fill="#848484"/>
<path d="M43.7746 478.688C63.2933 487.529 81.9343 496.028 94.5337 496.028C97.9417 496.028 100.885 495.401 103.312 494.032C106.72 492.092 108.889 488.613 109.818 483.764C112.039 472.356 101.04 461.347 84.3612 444.692C67.8374 428.207 45.2204 405.676 25.2369 371.908C12.1702 349.816 -0.222188 335.333 -11.7076 328.46C-12.2483 328.136 -12.9227 328.533 -12.9227 329.163C-12.9227 329.459 -12.7671 329.73 -12.5122 329.88C-1.2152 336.546 10.9874 350.841 23.946 372.821C44.0844 406.817 66.753 429.405 83.3285 445.947C99.5941 462.203 110.386 472.927 108.321 483.365C107.443 487.757 105.584 490.723 102.589 492.434C91.9002 498.652 68.8185 488.156 44.3942 477.034C28.2835 469.732 11.6048 462.146 -2.85353 458.724C-6.10974 457.953 -9.19833 457.413 -12.0438 457.106C-12.543 457.052 -12.9744 457.446 -12.9744 457.948C-12.9744 458.388 -12.6401 458.755 -12.2026 458.801C-9.41513 459.099 -6.37568 459.595 -3.16335 460.378C11.1401 463.857 27.7155 471.387 43.7746 478.688Z" fill="#848484"/>
<path d="M35.8268 447.952C41.1357 447.952 44.5048 446.478 45.8831 443.586C49.2522 436.328 39.0938 422.493 15.6121 402.307C5.61974 393.769 -4.73428 385.834 -11.7059 380.628C-12.2301 380.236 -12.9744 380.612 -12.9744 381.266C-12.9744 381.518 -12.8609 381.751 -12.6581 381.901C10.6097 399.141 49.8408 431.39 44.5559 442.792C43.4328 445.23 40.37 446.307 36.082 446.307C25.046 446.307 5.65664 439.471 -11.8118 432.06C-12.3632 431.826 -12.9744 432.231 -12.9744 432.83C-12.9744 433.163 -12.7758 433.465 -12.4691 433.596C-8.79173 435.168 -4.93386 436.738 -1.02931 438.256C15.561 444.72 27.9145 447.952 35.8268 447.952Z" fill="#848484"/>
<path d="M266.418 567.509C276.288 554.39 291.119 547.545 306.053 549.143C314.837 550.112 319.281 553.534 319.333 559.409C319.436 578.86 265.85 619.473 241.718 622.325C238.204 622.781 235.517 622.952 233.502 622.952C229.161 622.952 227.714 622.097 227.197 620.842C226.164 618.218 229.884 614.453 236.085 608.179C242.699 601.505 251.743 592.379 257.582 581.484C260.372 576.294 263.317 571.616 266.418 567.509ZM301.867 550.683C288.845 550.683 276.34 557.186 267.71 568.594C264.661 572.586 261.768 577.264 259.029 582.34C253.087 593.463 243.889 602.704 237.223 609.435C232.779 613.94 228.128 618.617 228.747 620.101C229.109 621.013 231.641 621.812 241.666 620.614C252.724 619.302 271.173 609.548 288.69 595.802C306.725 581.656 317.938 567.681 317.887 559.467C317.835 554.619 313.855 551.767 306.053 550.911C304.657 550.74 303.262 550.683 301.867 550.683Z" fill="#848484"/>
<path d="M37.3324 276.499C48.9179 300.103 61.3273 324.391 73.4277 342.123C86.7638 361.565 98.3493 371.029 108.905 371.029C109.008 371.029 109.111 371.029 109.214 371.029C119.718 370.858 128.987 361.508 137.534 342.579C155.504 302.84 176.77 278.552 199.066 272.451C214.307 268.289 229.961 272.394 245.562 284.767C257.56 294.288 266.107 297.424 271.565 294.402C279.649 289.955 280.113 273.364 280.628 254.207C281.194 233.169 281.812 209.28 293.192 198.333C298.495 193.259 305.601 191.377 314.921 192.517C339.328 195.596 362.55 191.491 382.065 180.772C400.602 170.567 414.968 155.002 423.567 135.731C431.754 117.43 434.123 96.7904 430.518 76.1513C429.055 67.7135 426.602 59.44 423.257 51.3309C423.134 51.0315 422.841 50.8369 422.517 50.8369C421.942 50.8369 421.554 51.4277 421.775 51.9593C433.366 79.7885 433.863 108.999 422.228 134.99C413.784 153.919 399.675 169.199 381.447 179.233C362.19 189.838 339.225 193.829 315.127 190.807C305.498 189.61 297.774 191.662 292.213 197.022C280.319 208.424 279.701 232.712 279.083 254.093C278.62 271.938 278.156 288.815 270.896 292.806C265.953 295.542 257.972 292.406 246.438 283.284C230.424 270.627 214.359 266.408 198.654 270.684C175.895 276.956 154.269 301.529 136.144 341.724C127.854 360.025 119.049 369.034 109.214 369.205C109.111 369.205 109.008 369.205 108.905 369.205C86.5064 369.205 61.9451 322.966 38.6712 275.53C24.6983 247.045 7.76048 227.314 -11.7551 216.552C-12.3063 216.248 -12.9744 216.651 -12.9744 217.281C-12.9744 217.585 -12.8091 217.865 -12.5429 218.013C6.78978 228.783 23.5324 248.316 37.3324 276.499Z" fill="#848484"/>
<path d="M56.5645 203.721C65.4626 203.721 73.2805 202.299 79.7098 199.4C94.3685 192.804 101.672 179.329 101.415 159.202C101.158 139.472 105.941 124.803 116.022 114.398C140.865 88.5846 194.356 93.0195 251.037 97.7955C259.369 98.4778 268.01 99.217 276.496 99.8424C284.777 100.468 292.39 100.752 299.385 100.752C331.325 100.752 349.43 94.4409 353.39 81.8754C356.138 73.1022 351.639 62.4933 344.373 52.1395C344.223 51.9254 343.977 51.7979 343.715 51.7979C343.055 51.7979 342.674 52.5495 343.055 53.0883C350.125 63.0776 354.465 73.1874 351.95 81.3637C347.424 95.8055 322.118 101.491 276.651 98.1935C268.164 97.5681 259.523 96.8289 251.191 96.1467C194.202 91.3706 140.351 86.8789 114.994 113.204C104.604 124.007 99.6662 139.074 99.9234 159.315C100.181 178.647 93.1855 191.667 79.1954 197.921C61.1935 205.995 31.9276 202.299 -1.19597 187.801C-4.74501 186.272 -8.25275 184.607 -11.7562 182.886C-12.3175 182.61 -12.9744 183.018 -12.9744 183.644C-12.9744 183.962 -12.7957 184.253 -12.5118 184.396C-8.95864 186.185 -5.36019 187.867 -1.76174 189.393C19.892 198.831 40.0541 203.721 56.5645 203.721Z" fill="#848484"/>
<path d="M27.1717 149.761C45.677 148.508 61.355 137.743 73.8461 117.752L75.9022 114.449C91.0662 90.1857 98.6739 77.9973 109.931 72.9282C121.189 67.8592 136.455 69.6818 166.886 73.3839C170.587 73.8395 174.545 74.2952 178.709 74.8078C214.743 79.1364 240.856 80.5602 258.539 79.1933C275.553 77.8833 285.217 74.0673 288.918 67.1758C291.113 63.0863 291.081 58.139 289.387 52.3337C289.294 52.0147 289 51.7979 288.667 51.7979C288.156 51.7979 287.792 52.2963 287.935 52.7878C289.499 58.1594 289.568 62.6706 287.582 66.3214C284.189 72.6435 274.679 76.2886 258.436 77.5416C240.856 78.8516 214.846 77.4277 178.863 73.0991C174.7 72.5865 170.742 72.1309 167.041 71.6752C136.353 67.9162 120.983 66.0367 109.314 71.3335C97.6459 76.6303 89.9353 88.9327 74.6171 113.48L72.561 116.784C60.327 136.319 45.0601 146.856 27.0689 148.052C18.0346 148.664 5.03068 146.995 -11.7514 138.539C-12.3091 138.258 -12.9744 138.659 -12.9744 139.284C-12.9744 139.597 -12.7962 139.885 -12.517 140.026C2.53698 147.642 14.6175 149.875 23.6249 149.875C24.8586 149.875 26.0408 149.818 27.1717 149.761Z" fill="#848484"/>
<path d="M48.0274 109.207C55.3578 105.418 60.3815 98.9698 62.8934 90.0331C66.5606 77.2845 67.4217 64.4273 66.8757 52.526C66.857 52.1176 66.5197 51.7979 66.1109 51.7979C65.6714 51.7979 65.3218 52.1656 65.342 52.6046C65.8795 64.3148 65.0146 76.9735 61.4068 89.5241C58.9974 98.0083 54.2301 104.117 47.3097 107.68C31.1963 116.044 6.28414 109.492 -11.8312 102.737C-12.386 102.53 -12.9744 102.94 -12.9744 103.533C-12.9744 103.884 -12.7588 104.199 -12.4296 104.322C-0.265925 108.889 14.9642 113.336 28.7016 113.336C35.7245 113.28 42.3886 112.149 48.0274 109.207Z" fill="#848484"/>
<path d="M365.953 92.8744C355.707 115.146 310.602 112.127 310.087 112.07C284.806 112.07 261.327 110.077 240.628 108.254C209.837 105.577 183.217 103.298 163.549 108.937C153.148 111.899 145.064 116.969 138.885 124.374C132.192 132.349 127.66 143.114 124.983 157.184C116.075 204.234 92.7507 209.873 73.9571 214.373C62.6295 217.107 52.8465 219.442 49.6027 230.607C46.6678 240.803 50.0661 261.081 58.3559 282.271C67.212 304.998 79.2605 322.599 90.5882 329.321C94.2439 331.485 97.8997 332.568 101.349 332.568C107.94 332.568 114.17 328.694 119.628 321.118C127.918 309.612 134.663 297.081 141.202 284.948C153.405 262.277 163.909 242.74 180.231 238.354C190.272 235.676 201.96 238.98 215.862 248.607C234.295 261.309 247.064 265.296 254.942 260.796C264.725 255.214 265.703 237.955 266.733 219.613C268.123 195.006 269.565 169.544 292.426 170.684C297.678 170.911 302.724 171.082 307.616 171.082C357.045 171.082 389.123 158.152 402.974 132.519C413.89 112.412 411.109 88.1466 406.887 71.4C404.938 63.6058 402.505 56.7236 400.339 51.326C400.22 51.0301 399.933 50.8369 399.614 50.8369C399.057 50.8369 398.677 51.4037 398.887 51.9209C401.046 57.2592 403.467 64.1872 405.394 71.9126C412.86 101.703 407.453 120.842 401.635 131.665C386.703 159.234 349.94 171.823 292.478 169.032C281.511 168.519 274.199 173.646 270.131 184.753C266.579 194.379 265.858 207.196 265.188 219.613C264.21 237.442 263.232 254.246 254.221 259.372C246.858 263.588 234.604 259.6 216.634 247.24C202.32 237.385 190.271 233.968 179.819 236.816C162.879 241.373 152.169 261.195 139.812 284.208C133.324 296.283 126.579 308.758 118.341 320.15C110.309 331.258 101.195 333.821 91.2061 327.897C80.1874 321.346 68.3448 304.087 59.6431 281.701C51.6623 261.195 48.161 240.917 50.9414 231.233C53.9278 220.98 62.8355 218.816 74.1631 216.139C83.6371 213.86 94.3469 211.297 103.924 203.208C114.994 193.867 122.357 178.943 126.373 157.582C131.368 131.095 142.901 116.627 163.806 110.646C172.559 108.14 182.806 107.229 194.185 107.229C207.984 107.229 223.585 108.596 240.371 110.02C261.121 111.786 284.6 113.836 309.881 113.836H309.933C310.036 113.836 321.672 114.691 334.39 112.64C351.691 109.906 362.709 103.526 367.24 93.7288C372.098 83.1507 369.034 68.9211 358.099 51.2633C357.958 51.0352 357.706 50.8939 357.438 50.8939C356.823 50.8939 356.453 51.5777 356.78 52.0986C367.49 69.1928 370.532 82.8556 365.953 92.8744Z" fill="#848484"/>
<path d="M369.097 113.716C360.653 125.413 335.114 130.263 295.312 127.752C265.088 125.869 237.077 120.335 236.82 120.277C236.665 120.22 219.571 116.854 200.314 121.019C188.934 123.416 179.048 127.923 170.861 134.428C160.615 142.53 153.046 153.714 148.412 167.636C139.453 194.625 129.412 213.055 117.672 224.01C107.477 233.539 97.5398 236.05 88.2717 237.819C74.7298 240.386 70.1472 249.972 68.7055 257.561C65.8221 272.396 72.7732 292.424 83.5861 300.469C86.521 302.637 89.5074 303.722 92.3908 303.722C95.0683 303.722 97.6943 302.809 100.166 300.926C110.309 293.28 120.71 278.559 131.729 263.039C152.685 233.425 174.363 202.842 196.143 218.19C199.335 220.416 202.425 222.641 205.36 224.809C221.321 236.392 233.988 245.579 241.969 241.242C246.706 238.674 249.383 231.884 250.362 219.788C252.37 194.796 256.077 175.967 267.662 165.354C275.901 157.765 287.64 154.969 303.602 156.681C348.295 161.531 377.748 152.744 391.186 130.662C401.948 112.974 400.094 89.9792 396.644 73.7746C394.745 64.8559 392.166 56.959 390.085 51.3371C389.974 51.0359 389.686 50.8369 389.365 50.8369C388.827 50.8369 388.454 51.3747 388.641 51.8795C390.696 57.4328 393.264 65.2745 395.151 74.174C398.498 90.0363 400.3 112.517 389.899 129.692C376.821 151.203 347.832 159.705 303.757 154.969C287.383 153.2 275.283 156.167 266.684 164.042C254.738 175.054 250.877 194.226 248.817 219.674C247.89 230.972 245.47 237.533 241.299 239.759C234.091 243.639 221.785 234.737 206.235 223.44C203.248 221.272 200.159 219.046 196.967 216.821C186.617 209.517 175.444 211.343 162.829 222.413C151.81 231.999 140.997 247.29 130.545 262.069C119.629 277.532 109.28 292.082 99.342 299.613C93.5236 304.007 88.0657 301.781 84.4614 299.1C74.112 291.397 67.4698 272.168 70.1987 257.96C71.589 250.885 75.8626 241.927 88.5291 239.53C98.0032 237.704 108.147 235.137 118.651 225.323C130.596 214.139 140.791 195.481 149.854 168.207C154.385 154.57 161.748 143.672 171.685 135.797C179.666 129.464 189.398 125.07 200.52 122.674C207.728 121.133 214.628 120.62 220.446 120.62C226.393 120.62 231.164 121.137 233.917 121.522C235.647 121.764 237.359 122.102 239.076 122.418C246.693 123.818 270.198 127.854 295.209 129.407C336.092 131.975 361.374 127.067 370.282 114.743C379.086 102.589 381.146 86.2704 376.203 67.384C374.564 61.1634 372.445 55.6332 370.541 51.3059C370.415 51.0202 370.132 50.8369 369.82 50.8369C369.242 50.8369 368.859 51.4351 369.095 51.962C370.984 56.175 373.106 61.6725 374.71 67.8404C378.056 80.6787 379.807 98.9375 369.097 113.716Z" fill="#848484"/>
<path d="M205.294 136.315C210.758 133.341 216.835 132.712 222.452 134.599C227.916 136.429 232.053 140.261 234.708 145.98C242.675 163.194 235.628 193.448 230.726 209.919C229.449 214.266 227.866 216.553 225.772 217.068C225.465 217.125 225.159 217.182 224.853 217.182C221.431 217.182 217.499 212.665 212.597 207.06C207.95 201.741 202.69 195.736 196.358 191.504C185.787 184.413 180.578 176.463 180.884 167.77C181.446 152.614 199.166 139.689 205.294 136.315ZM215.866 135.286C212.495 135.286 209.124 136.144 205.958 137.86C200.035 141.12 182.927 153.53 182.416 167.828C182.11 175.834 187.115 183.326 197.175 190.017C203.66 194.306 209.226 200.712 213.72 205.859C218.52 211.349 222.656 216.095 225.465 215.41C226.946 215.009 228.223 213.065 229.295 209.405C240.53 171.545 236.649 153.93 233.329 146.838C230.878 141.577 227.049 138.031 221.993 136.315C220.002 135.629 217.959 135.286 215.866 135.286Z" fill="#848484"/>
<path d="M205.376 165.215C207.06 163.823 209.002 162.493 211.185 162.383C212.004 162.342 212.823 162.454 213.614 162.727C215.435 163.357 216.8 164.617 217.66 166.564C220.189 172.061 218.014 181.51 216.497 186.664C216.244 187.637 215.739 188.954 214.626 189.241C214.474 189.298 214.373 189.298 214.222 189.298C212.957 189.298 211.742 187.867 210.124 185.977C208.758 184.374 207.191 182.541 205.319 181.281C201.931 178.99 200.262 176.356 200.363 173.436C200.484 169.935 203.205 167.009 205.376 165.215ZM211.541 164.101C210.58 164.101 209.669 164.33 208.759 164.845C207.393 165.647 202.082 169.37 201.931 173.55C201.83 175.726 203.246 177.845 206.129 179.792C208.152 181.166 209.872 183.171 211.237 184.774C211.785 185.394 212.407 186.112 212.963 186.66C213.746 187.431 214.754 187.14 215.081 186.09C216.194 182.139 218.672 172.405 216.396 167.308C215.688 165.819 214.677 164.845 213.261 164.387C212.704 164.215 212.097 164.101 211.541 164.101Z" fill="#848484"/>
<path d="M370.179 829.532C368.855 828.141 367.174 827.585 365.238 827.807C358.97 828.55 350.525 837.947 343.879 846.683C343.482 847.205 343.857 847.952 344.513 847.952C344.763 847.952 344.998 847.836 345.149 847.636C351.582 839.158 359.704 830.191 365.39 829.477C366.868 829.31 368.091 829.699 369.11 830.757C372.552 834.299 376.385 840.722 379.891 847.519C380.028 847.785 380.302 847.952 380.601 847.952C381.195 847.952 381.58 847.326 381.307 846.798C377.735 839.867 373.752 833.276 370.179 829.532Z" fill="#848484"/>
<path d="M377.179 561.556C386.974 555.124 403.948 554.951 427.639 561.096C441.271 564.658 453.305 569.375 458.113 571.346C459.544 571.932 461.025 572.39 462.534 572.73C475.676 575.688 477.375 578.318 477.278 580.277C477.175 583.092 473.073 586.939 442.1 592.108C422.87 595.324 399.948 597.965 383.231 599.86L379.077 600.32C376.052 600.665 373.334 600.837 370.873 600.837C361.488 600.837 356.001 598.31 354.565 593.371C351.95 584.47 364.001 570.228 377.179 561.556ZM397.795 558.339C390.154 558.339 383.077 559.66 377.898 563.048C371.386 567.355 365.283 572.926 361.129 578.382C356.771 584.182 354.924 589.293 355.95 592.854C357.539 598.137 365.437 600.147 378.821 598.597L383.026 598.195C399.743 596.243 422.614 593.658 441.793 590.442C472.199 585.331 475.586 581.598 475.637 580.22C475.688 579.533 474.619 577.022 459.956 573.937C459.849 573.914 459.74 573.883 459.638 573.845C459.484 573.787 444.664 567.298 427.229 562.761C418.255 560.406 407.538 558.339 397.795 558.339Z" fill="#848484"/>
<path d="M404.524 184.845C411.96 180.904 420.772 182.142 426.986 188.053C431.875 192.725 437.172 199.367 434.524 204.884C432.486 209.162 426.018 211.413 417.41 211.413C411.655 211.413 404.931 210.4 397.902 208.317C391.536 206.46 388.327 203.927 388.072 200.662C387.665 196.159 393.217 190.868 404.524 184.845ZM413.488 184.281C410.636 184.281 407.783 184.957 405.135 186.364C394.795 191.881 389.243 196.891 389.549 200.493C389.753 202.914 392.758 205.052 398.259 206.685C414.507 211.526 430.143 210.344 433.149 204.096C434.88 200.549 432.385 195.427 425.967 189.348C422.402 186.027 417.97 184.281 413.488 184.281Z" fill="#848484"/>
<path d="M550.256 830.351C523.46 826.603 507.721 801.508 487.867 769.714C482.312 760.857 476.552 751.659 470.071 742.121C453.818 718.218 435.611 703.854 416.014 699.425C393.744 694.429 369.261 702.15 343.287 722.363C314.741 744.562 273.44 780.274 238.002 813.431C228.429 822.411 216.034 834.242 203.769 846.581C203.265 847.089 203.624 847.951 204.339 847.951C204.553 847.951 204.757 847.867 204.908 847.715C214.933 837.672 226.323 826.624 238.98 814.737C274.366 781.637 315.616 745.925 344.11 723.782C392.509 686.139 434.479 692.669 468.785 743.199C475.215 752.681 480.975 761.879 486.53 770.736C506.641 802.871 522.534 828.193 549.999 832.054C569.041 834.716 580.132 839.87 583.129 847.411C583.256 847.731 583.56 847.951 583.905 847.951C584.441 847.951 584.827 847.438 584.638 846.936C581.531 838.696 569.98 833.133 550.256 830.351Z" fill="#848484"/>
<path d="M403.749 764.566C394 759.864 383.993 760.431 373.986 766.209C349.175 780.484 326.685 797.366 307.136 816.456C295.698 827.615 286.924 837.902 280.323 846.634C279.911 847.178 280.302 847.953 280.984 847.953C281.244 847.953 281.484 847.836 281.641 847.629C296.979 827.388 326.427 795.461 374.657 767.682C384.251 762.187 393.794 761.621 403.078 766.096C421.803 775.103 436.452 802.861 445.427 824.613C448.795 832.673 451.624 840.572 453.914 847.417C454.021 847.737 454.32 847.953 454.658 847.953C455.192 847.953 455.57 847.43 455.4 846.923C453.089 840.02 450.261 832.08 446.871 823.934C433.666 791.927 419.12 771.931 403.749 764.566Z" fill="#848484"/>
<path d="M165.975 636.368C173.652 631.407 184.027 633.689 188.125 637.567C189.888 639.22 190.511 641.16 189.837 642.985C188.488 646.862 183.3 650.854 174.482 654.789C173.185 655.359 171.889 655.645 170.696 655.645C166.857 655.645 163.849 652.908 162.396 649.714C160.581 645.608 160.892 639.676 165.975 636.368ZM176.039 635.285C172.874 635.285 169.607 636.027 166.754 637.852C162.5 640.589 162.189 645.379 163.797 648.915C165.405 652.451 169.243 655.303 173.912 653.193C182.211 649.486 187.243 645.721 188.436 642.357C188.955 640.931 188.021 639.677 187.088 638.878C184.909 636.825 180.603 635.285 176.039 635.285Z" fill="#848484"/>
<path d="M203.598 789.612C213.838 782.779 238.465 781.679 243.382 786.427C244.406 787.353 244.714 788.57 244.253 789.844C242.255 795.576 220.597 808.083 213.429 811.383C211.893 812.136 210.459 812.425 209.025 812.367C204.622 812.367 201.192 809.183 199.502 805.362C197.351 800.498 197.761 793.491 203.598 789.612ZM242.358 787.759C237.955 783.532 213.736 784.864 204.366 791.117C199.349 794.476 198.989 800.324 200.884 804.609C202.778 808.893 207.336 812.368 212.814 809.762C221.877 805.535 241.179 793.724 242.768 789.207C242.921 788.802 242.973 788.338 242.358 787.759Z" fill="#848484"/>
<path d="M312.752 443.088C319.339 440.006 329.712 440.734 343.559 445.329C353.769 448.745 362.218 453.056 362.333 453.118C366.69 455.471 366.845 457.713 366.275 459.17C364.563 463.372 353.777 465.839 344.286 466.735C341.329 467.015 338.009 467.183 334.586 467.183C326.963 467.183 318.821 466.343 313.012 463.933C304.714 460.515 304.299 455.416 305.44 451.718C306.633 447.739 309.07 444.825 312.752 443.088ZM322.452 442.92C319.081 442.92 315.969 443.368 313.375 444.6C310.108 446.113 307.929 448.691 306.892 452.221C305.596 456.592 307.826 460.011 313.634 462.364C320.48 465.166 332.202 466.174 344.182 465.053C355.229 463.989 363.734 461.3 364.875 458.498C365.446 457.041 363.423 455.583 361.66 454.631C361.132 454.346 338.629 442.92 322.452 442.92Z" fill="#848484"/>
<path d="M613.191 793.555C586.029 788.093 582.788 767.666 578.673 741.776C574.043 712.871 568.333 676.911 526.767 648.233C505.932 633.895 485.973 624.904 465.704 620.751C447.596 617.052 429.591 617.28 410.763 621.49C375.782 629.343 342.756 650.282 310.758 670.481C280.819 689.429 249.85 709.059 216.515 718.732C198.613 723.967 181.534 725.901 164.301 724.763C144.958 723.455 125.924 718.277 106.17 708.888C71.6523 692.501 37.3399 686.811 4.21075 691.932C-1.70108 692.866 -7.56494 694.119 -13.3808 695.741C-13.7474 695.843 -14 696.178 -14 696.558C-14 697.121 -13.4629 697.529 -12.9195 697.381C-7.15765 695.813 -1.39041 694.55 4.46797 693.639C37.3399 688.518 71.3436 694.208 105.605 710.425C129.937 721.975 152.469 726.755 173.715 726.755C225.003 726.755 268.781 699.045 311.53 672.017C344.865 650.908 376.297 630.993 411.072 623.197C429.694 618.987 447.493 618.759 465.396 622.458C485.51 626.554 505.315 635.488 525.944 649.713C544.206 662.287 566.944 677.935 577.181 742.061C579.29 755.432 581.142 766.983 586.029 776.258C591.43 786.556 600.021 792.588 612.933 795.205C651.156 802.944 673.893 815.177 684.439 833.726C686.861 837.936 688.666 842.514 689.899 847.359C689.987 847.706 690.298 847.951 690.657 847.951C691.159 847.951 691.53 847.482 691.406 846.996C690.127 841.954 688.29 837.259 685.725 832.816C674.922 813.868 651.876 801.35 613.191 793.555Z" fill="#848484"/>
<path d="M583.266 812.233C550.914 806.887 547.879 796.137 541.295 772.704C535.534 752.285 526.842 721.344 492.843 676.468C447.117 616.065 398.614 653.832 342.446 697.57C285.508 741.934 220.956 792.156 142.158 755.982C111.965 742.104 81.5153 735.279 51.58 735.563C29.5 735.789 7.62217 739.928 -13.452 747.869C-13.7819 747.993 -14 748.309 -14 748.662C-14 749.257 -13.4027 749.668 -12.8454 749.458C8.04007 741.612 29.6613 737.55 51.58 737.327C81.3096 736.985 111.554 743.867 141.54 757.632C177.031 773.955 212.881 774.24 251.046 758.599C284.427 744.891 314.363 721.572 343.321 699.049C371.096 677.435 397.328 657.017 421.863 649.736C448.969 641.66 471.138 650.533 491.66 677.663C525.453 722.311 534.094 753.025 539.804 773.33C546.387 796.763 549.731 808.536 583.061 814.053C602.555 817.295 614.745 825.258 619.323 837.714C620.38 840.638 621.033 843.809 621.324 847.23C621.359 847.636 621.697 847.952 622.105 847.952C622.549 847.952 622.904 847.579 622.872 847.135C622.614 843.521 621.911 840.157 620.763 837.089C615.928 823.893 603.326 815.589 583.266 812.233Z" fill="#848484"/>
<path d="M423.403 735.373C409.108 724.865 389.929 725.206 366.43 736.566C347.765 745.54 326.324 761.444 302.671 783.71C279.131 805.951 258.03 830.241 244.501 846.657C244.074 847.175 244.446 847.951 245.117 847.951C245.355 847.951 245.577 847.848 245.728 847.664C259.21 831.253 280.183 807.096 303.648 784.96C327.198 762.751 348.485 746.96 366.996 738.043C389.98 726.967 408.645 726.512 422.477 736.736C454.614 760.422 471.685 800.409 486.751 835.682C488.481 839.668 490.115 843.6 491.792 847.43C491.916 847.712 492.194 847.894 492.502 847.894C493.063 847.894 493.439 847.318 493.214 846.805C491.522 842.946 489.831 838.992 488.139 834.944C473.073 799.5 455.899 759.286 423.403 735.373Z" fill="#848484"/>
<path d="M381.515 796.054C374.855 790.78 366.248 790.895 355.951 796.398C347.856 800.755 338.685 808.438 328.695 819.273C319.667 829.104 311.513 839.759 305.887 847.629C305.502 848.168 305.89 848.913 306.553 848.913C306.816 848.913 307.057 848.796 307.21 848.582C323.318 826.162 359.692 780.886 380.593 797.43C394.05 808.113 401.97 829.216 408.794 848.401C408.903 848.709 409.194 848.913 409.522 848.913C410.055 848.913 410.429 848.387 410.25 847.884C403.366 828.485 395.359 807.039 381.515 796.054Z" fill="#848484"/>
<path d="M128.868 794.189C115.646 790.45 101.961 786.598 89.6653 782.009C59.1573 770.509 23.8134 780.196 -0.469498 790.337C-5.07829 792.247 -9.4484 794.262 -13.5339 796.281C-13.8196 796.422 -14 796.713 -14 797.032C-14 797.654 -13.3475 798.06 -12.7884 797.788C-8.75709 795.824 -4.43646 793.827 0.0964165 791.923C24.1221 781.896 59.1059 772.321 89.1508 783.652C101.447 788.297 115.183 792.15 128.456 795.889C158.295 804.273 186.488 812.204 188.443 826.594C189.22 832.318 185.868 838.952 178.3 846.591C177.806 847.09 178.153 847.952 178.856 847.952C179.065 847.952 179.267 847.866 179.413 847.716C187.327 839.601 190.802 832.539 189.986 826.311C187.826 810.788 160.507 803.083 128.868 794.189Z" fill="#848484"/>
<path d="M109.086 819.532C98.9227 817.573 86.5525 817.688 75.1576 819.878C54.2132 823.881 13.3856 836.63 -13.4201 845.326C-13.7702 845.44 -14 845.764 -14 846.132C-14 846.709 -13.4472 847.121 -12.8984 846.943C13.9195 838.25 54.6059 825.583 75.4656 821.548C86.7065 819.417 98.8714 819.244 108.88 821.203C123.355 824.026 128.437 829.96 130.182 834.511C131.664 838.321 131.409 842.78 129.46 847.796C129.253 848.328 129.638 848.914 130.209 848.914C130.533 848.914 130.826 848.716 130.942 848.413C133.018 842.968 133.211 838.068 131.568 833.82C128.129 824.947 117.452 821.145 109.086 819.532Z" fill="#848484"/>
<path d="M49.1697 504.822C72.4022 522.133 87.5649 546.96 100.877 568.883C115.989 593.71 129.096 615.177 149.552 618.65C151.454 618.992 153.407 619.106 155.361 619.106C171.14 619.106 189.901 609.027 213.699 587.788C231.534 571.844 246.389 557.38 259.495 544.568C287.148 517.52 307.143 497.989 329.244 491.669C351.809 485.177 376.583 492.01 414.721 515.186C445.869 534.148 483.031 547.188 516.595 550.946C532.22 552.711 546.406 552.369 557.663 549.864C569.536 547.244 577.863 542.518 582.334 535.742C588.451 526.46 589.941 509.207 562.134 479.654C528.879 444.292 491.049 440.022 451.009 435.523C424.487 432.562 397.04 429.43 369.336 417.074C337.982 403.123 310.792 378.865 286.172 343.048C267.976 316.57 246.748 304.043 224.698 306.833C209.69 308.712 194.938 317.481 180.855 332.799C166.72 348.287 153.973 369.641 143.076 396.29C134.955 416.049 126.012 426.185 115.578 427.21C93.0133 429.43 66.9024 387.407 41.7168 346.75C29.124 326.421 16.12 305.466 3.73275 290.434C-2.16555 283.167 -7.58735 277.725 -12.6519 273.929C-13.2135 273.509 -14 273.917 -14 274.618C-14 274.895 -13.8721 275.152 -13.6497 275.317C3.57502 288.108 22.2573 318.193 40.4832 347.604C53.1274 367.989 66.2343 389.115 78.8271 404.489C92.2937 420.889 103.807 428.918 113.933 428.918C114.55 428.918 115.166 428.861 115.783 428.804C126.783 427.722 136.189 417.302 144.515 396.916C155.361 370.438 167.953 349.255 181.985 333.938C195.812 318.848 210.255 310.25 224.904 308.427C246.337 305.751 267.154 318.051 284.99 344.016C309.764 380.118 337.211 404.489 368.77 418.554C396.68 431.025 424.23 434.1 450.855 437.118C490.638 441.616 528.211 445.83 561.106 480.793C588.142 509.548 586.909 525.948 581.152 534.66C572.723 547.358 548.668 552.768 516.8 549.181C483.442 545.422 446.486 532.439 415.492 513.591C376.994 490.188 351.911 483.355 328.884 489.96C306.423 496.395 286.326 516.04 258.519 543.258C245.412 556.071 230.609 570.534 212.774 586.421C186.354 609.995 166.36 619.675 149.809 616.885C130.021 613.583 117.12 592.4 102.162 567.858C88.7471 545.821 73.533 520.88 50.0435 503.342C30.5632 488.821 12.008 481.533 -5.31352 481.533C-7.9961 481.533 -10.6356 481.724 -13.2714 482.062C-13.6893 482.116 -14 482.473 -14 482.894C-14 483.408 -13.5453 483.802 -13.0357 483.737C6.17849 481.309 27.0277 488.301 49.1697 504.822Z" fill="#848484"/>
<path d="M14.8463 672.877C38.6536 673.276 65.2889 678.575 88.7876 683.191C122.467 689.858 149 695.101 152.291 683.02C157.227 664.899 141.184 649.912 114.549 625.124C95.4721 607.345 71.6649 585.235 46.2122 553.438C27.0842 529.619 8.00755 518.792 -10.4006 521.413C-11.3318 521.554 -12.2977 521.733 -13.3272 521.951C-13.7206 522.034 -14 522.383 -14 522.785C-14 523.337 -13.4871 523.744 -12.9484 523.626C-12.0433 523.427 -11.1191 523.245 -10.195 523.122C7.69903 520.615 26.2615 531.214 45.081 554.635C70.6365 586.546 94.4437 608.713 113.572 626.549C139.693 650.881 155.479 665.583 150.851 682.621C147.971 693.22 120.668 687.807 89.0961 681.595C55.2615 674.865 15.5516 667.013 -13.3447 673.636C-13.7315 673.724 -14 674.069 -14 674.466C-14 675.021 -13.4812 675.429 -12.9399 675.306C-4.95429 673.49 4.26269 672.713 14.8463 672.877Z" fill="#848484"/>
<path d="M82.4571 663.337C95.7898 663.337 103.277 660.655 104.713 655.236C107.892 643.428 81.3802 622.15 65.2271 610.513C42.4077 594.026 15.2294 578.51 0.614715 573.547C-3.93143 572.003 -8.52224 570.907 -13.0327 570.211C-13.5429 570.132 -14 570.529 -14 571.045C-14 571.467 -13.6911 571.824 -13.275 571.889C-8.84025 572.583 -4.32047 573.687 0.153198 575.201C14.6654 580.107 41.6898 595.51 64.3554 611.939C90.7644 631.049 105.277 647.022 103.174 654.723C101.123 662.253 82.8674 663.622 51.7406 658.602C27.1938 654.709 1.57479 647.942 -12.8572 643.482C-13.4014 643.314 -13.9487 643.722 -13.9487 644.291C-13.9487 644.66 -13.7174 644.984 -13.3654 645.093C1.11009 649.602 26.8975 656.374 51.5867 660.37C64.0477 662.367 74.3549 663.337 82.4571 663.337Z" fill="#848484"/>
<path d="M228.457 339.963C235.805 338.311 242.536 339.736 248.343 344.237C270.386 361.213 284.671 377.733 297.311 392.26C316.734 414.591 332.047 432.251 365.651 442.448C386.872 448.886 396.893 454.811 396.225 460.621C395.712 465.122 388.517 468.711 374.798 471.331C361.489 473.838 342.272 475.376 319.252 475.718C301.884 476.003 283.848 483.466 264.065 498.676C246.8 512.006 230.46 529.382 216.021 544.763C194.697 567.493 176.045 587.375 160.784 587.375C159.294 587.375 157.855 587.204 156.468 586.805C143.879 583.387 133.859 573.475 127.487 558.265C121.064 542.77 118.906 522.773 121.321 500.385C123.531 480.218 129.954 460.223 140.025 442.563C175.84 379.613 205.591 345.09 228.457 339.963ZM234.264 341.045C232.517 341.045 230.666 341.273 228.816 341.672C206.413 346.685 176.97 380.923 141.361 443.474C131.444 460.906 125.072 480.674 122.914 500.612C120.55 522.659 122.657 542.37 128.977 557.58C135.092 572.335 144.752 581.906 156.879 585.21C158.163 585.552 159.5 585.723 160.836 585.723C175.429 585.723 193.875 566.068 214.942 543.623C229.381 528.185 245.773 510.753 263.192 497.365C283.232 481.984 301.576 474.35 319.252 474.066C342.22 473.724 361.335 472.185 374.541 469.679C391.548 466.432 394.478 462.501 394.735 460.45C395.455 453.956 374.387 446.835 365.292 444.101C331.276 433.733 315.809 415.959 296.283 393.456C283.694 378.986 269.461 362.579 247.52 345.659C243.513 342.583 239.093 341.045 234.264 341.045Z" fill="#848484"/>
<path d="M624.857 190.481C612.354 195.549 604.945 208.761 594.602 227.098C589.611 235.982 583.9 246.062 576.748 256.769C553.491 291.336 530.079 278.637 491.283 257.623C471.267 246.746 446.312 233.249 415.491 223.454C370.675 209.217 340.78 209.957 324.109 225.732C308.828 240.197 303.991 266.905 308.828 309.787C313.047 346.975 338.259 375.62 383.744 394.982C426.605 413.206 477.339 418.388 503.735 419.925C549.632 422.488 589.92 430.347 623.571 443.16C650.43 453.411 673.121 466.851 690.975 483.138C696.192 487.899 700.717 492.615 704.587 497.206C705.064 497.773 706 497.437 706 496.696C706 496.51 705.934 496.329 705.813 496.187C701.894 491.584 697.375 486.763 692.107 481.942C674.099 465.484 651.253 451.93 624.188 441.623C590.383 428.752 549.889 420.894 503.838 418.274C477.493 416.793 426.966 411.611 384.31 393.445C339.391 374.367 314.487 346.177 310.371 309.674C305.586 267.418 310.268 241.222 325.138 227.155C341.398 211.779 370.829 211.096 415.08 225.219C445.798 235.014 470.65 248.454 490.614 259.274C510.321 269.981 525.911 278.409 539.804 279.89C554.88 281.484 566.663 274.707 577.983 257.907C585.186 247.201 590.898 237.064 595.94 228.123C606.077 210.071 613.434 197.03 625.423 192.189C638.081 187.064 655.215 191.392 682.794 206.654C690.638 211.022 697.898 215.788 704.614 220.812C705.184 221.239 706 220.834 706 220.122C706 219.853 705.874 219.6 705.66 219.437C698.858 214.295 691.459 209.484 683.463 205.059C655.421 189.569 637.926 185.184 624.857 190.481Z" fill="#848484"/>
<path d="M655.369 244.125C642.724 244.524 632.032 251.193 623.602 263.961C615.943 275.532 610.546 286.076 605.714 295.31C590.191 325.235 583.097 338.915 535.55 318.224C521.671 312.182 505.325 303.404 488.003 294.113C440.301 268.464 386.226 239.394 357.595 253.53C348.959 257.748 343.048 265.842 340.015 277.47C335.903 293.201 337.497 307.451 344.847 319.82C355.539 337.775 378.053 352.024 413.623 363.424C441.278 372.316 476.9 379.441 525.629 385.939C573.485 392.323 623.037 409.309 665.084 433.704C680.107 442.443 693.526 451.811 704.571 461.154C705.134 461.631 706 461.231 706 460.494C706 460.241 705.89 460.001 705.696 459.838C694.6 450.461 681.135 441.089 665.752 432.165C623.551 407.656 573.793 390.613 525.732 384.229C477.054 377.731 441.535 370.606 413.983 361.714C378.773 350.428 356.567 336.35 346.081 318.794C338.987 306.881 337.445 293.144 341.403 277.869C344.385 266.583 349.833 259.116 358.109 255.069C386.123 241.275 439.839 270.174 487.232 295.652C504.554 305 520.952 313.778 534.882 319.82C558.372 330.023 572.817 332.303 583.2 327.344C593.223 322.556 598.98 311.498 606.896 296.165C611.677 286.931 617.074 276.501 624.681 264.987C632.803 252.675 643.084 246.234 655.266 245.835C671.911 245.338 689.957 256.252 704.579 268.189C705.125 268.635 705.949 268.249 705.949 267.543C705.949 267.296 705.835 267.058 705.644 266.9C682.465 247.738 665.707 243.785 655.369 244.125Z" fill="#848484"/>
<path d="M376.563 268.877C392.802 264.869 423.38 277.293 467.371 305.92C500.055 327.104 528.371 349.834 528.679 350.063C534.795 355.158 536.953 359.339 535.103 362.487C533.047 365.865 526.417 367.182 517.681 367.182C505.707 367.182 489.673 364.719 475.592 361.57C441.315 353.956 408.63 341.017 388.177 326.989C365.155 311.187 357.344 294.069 365.618 277.465C367.827 272.999 371.527 270.137 376.563 268.877ZM383.089 269.851C380.828 269.851 378.773 270.079 376.872 270.537C372.298 271.682 368.958 274.259 366.954 278.267C362.842 286.511 362.893 294.87 367.159 303.172C371.013 310.73 378.362 318.23 388.949 325.501C409.248 339.414 441.726 352.296 475.849 359.854C490.495 363.117 504.319 365.063 514.751 365.35C528.987 365.751 532.79 363.059 533.766 361.456C535.462 358.708 531.453 354.472 527.753 351.438C526.417 350.35 425.692 269.851 383.089 269.851Z" fill="#848484"/>
<path d="M399.899 298.298C406.591 296.436 421.467 302.077 444.065 315.106C457.533 322.871 469.867 331.111 474.271 334.087C475.412 334.858 476.604 335.601 477.468 336.673C478.164 337.536 478.663 338.635 477.987 339.698C477.318 340.826 475.258 341.221 472.479 341.221C464.861 341.221 451.941 337.949 448.646 337.103C431.505 332.591 415.599 326.105 406.127 319.731C396.605 313.301 393.31 307.04 396.295 301.118C397.016 299.708 398.252 298.749 399.899 298.298ZM402.833 299.596C401.855 299.596 401.031 299.708 400.259 299.933C398.973 300.272 398.149 300.949 397.634 301.908C395.112 306.871 398.201 312.342 406.9 318.208C416.217 324.525 431.968 330.955 449.006 335.411C461.747 338.737 470.178 339.701 474.159 339.436C475.971 339.315 476.456 337.748 475.053 336.596C473.612 335.58 421.004 299.596 402.833 299.596Z" fill="#848484"/>
<path d="M205.498 392.32C218.064 382.244 229.347 378.146 238.989 380.195C246.939 381.902 253.761 387.652 259.3 397.329C264.736 406.779 267.352 417.708 266.993 428.979C266.634 440.193 263.3 450.952 257.402 460.06L255.812 462.507C236.22 492.734 216.012 523.986 171.903 544.592C166.774 546.983 162.569 547.951 159.133 547.951C152.158 547.951 148.362 543.967 146.208 539.754C132.514 512.829 163.441 426.133 205.498 392.32ZM234.015 381.448C225.86 381.448 216.627 385.603 206.421 393.8C187.393 409.113 168.673 437.404 156.363 469.453C144.823 499.452 141.386 526.776 147.541 538.957C151.695 547.098 159.646 548.464 171.288 542.999C214.986 522.564 235.091 491.54 254.529 461.484L256.12 459.036C261.864 450.212 265.095 439.795 265.454 428.922C265.813 417.993 263.249 407.405 258.018 398.297C252.735 389.075 246.221 383.554 238.732 381.96C237.194 381.619 235.604 381.448 234.015 381.448Z" fill="#848484"/>
<path d="M206.241 422.633C213.595 416.758 220.178 414.362 225.886 415.56C230.566 416.529 234.628 419.895 237.868 425.599C244.297 436.893 243.885 451.268 236.736 462.277C225.371 479.788 212.978 493.136 186.648 505.457C183.459 506.94 180.836 507.568 178.728 507.568C174.665 507.567 172.454 505.343 171.272 503.004C167.723 496.045 169.883 481.329 176.877 464.615C184.18 447.275 195.133 431.531 206.241 422.633ZM222.954 416.986C218.275 416.986 213.029 419.382 207.167 424.059C196.316 432.786 185.516 448.244 178.317 465.357C171.58 481.271 169.369 495.76 172.66 502.205C174.82 506.483 179.345 507.054 186.082 503.917C212.104 491.767 224.292 478.59 235.503 461.307C242.291 450.868 242.703 437.235 236.583 426.569C233.549 421.321 229.897 418.183 225.629 417.271C224.755 417.1 223.88 416.986 222.954 416.986Z" fill="#848484"/>
<path d="M683.263 509.907C670.145 501.296 657.079 499.472 646.534 504.775C630.844 512.587 623.643 534.484 629.815 555.696C631.41 561.17 630.433 565.561 626.935 568.982C615.875 579.703 580.123 580.615 528.785 571.434C484.443 563.508 436.654 549.195 412.528 536.536C392.517 526.044 376.365 524.334 364.482 531.347C353.936 537.563 346.992 550.906 344.368 569.838C340.459 598.178 286.703 625.207 243.492 646.875C212.833 662.271 188.604 674.417 185.363 684.396C184.798 686.107 184.849 687.703 185.518 689.186C188.398 695.801 195.446 696.941 208.46 692.892C220.446 689.129 237.422 681.089 258.873 670.882C292.155 655.029 337.784 633.304 396.324 612.605C444.318 595.669 486.037 597.608 520.297 618.364C538.867 629.654 554.917 646.305 567.983 667.86C579.146 686.335 588.045 708.403 593.652 731.725C597.768 748.832 606.77 763.087 620.453 774.093C631.513 782.988 645.711 789.831 662.584 794.45C675.497 797.972 690.141 800.124 705.11 800.798C705.595 800.82 706 800.432 706 799.946C706 799.487 705.638 799.111 705.18 799.09C690.292 798.42 675.774 796.267 662.944 792.739C646.277 788.234 632.285 781.449 621.379 772.667C608.004 761.89 599.208 747.976 595.144 731.212C589.486 707.661 580.535 685.423 569.269 666.833C556.049 644.993 539.845 628.172 521.017 616.767C486.397 595.726 444.267 593.787 395.861 610.837C337.218 631.536 291.589 653.262 258.256 669.171C215.714 689.414 192.257 700.591 186.907 688.331C186.444 687.247 186.392 686.107 186.804 684.852C189.839 675.558 214.994 662.899 244.161 648.301C265.869 637.409 290.509 625.036 309.903 611.92C332.331 596.752 344.111 583.01 345.911 569.952C348.432 551.59 355.119 538.703 365.202 532.716C376.673 525.93 392.363 527.698 411.911 537.962C447.816 556.779 535.472 579.246 588.714 579.246C607.078 579.246 621.379 576.566 628.015 570.123C632.027 566.245 633.159 561.17 631.359 555.012C625.443 534.655 632.285 513.613 647.254 506.143C665.922 496.848 686.527 510.209 704.323 531.743C704.867 532.402 705.948 532.021 705.948 531.166C705.948 530.952 705.872 530.744 705.733 530.581C698.293 521.86 690.803 514.877 683.263 509.907Z" fill="#848484"/>
<path d="M42.7768 477.727C62.2873 486.568 80.9204 495.067 93.5146 495.067C96.9212 495.067 99.8633 494.44 102.289 493.071C105.696 491.131 107.864 487.652 108.793 482.803C111.012 471.395 100.018 460.387 83.3464 443.731C66.8295 427.246 44.222 404.715 24.2469 370.947C11.1343 348.853 -1.20765 334.369 -12.7326 327.496C-13.274 327.173 -13.9484 327.571 -13.9484 328.201C-13.9484 328.498 -13.7926 328.769 -13.5374 328.92C-2.2453 335.586 9.95192 349.881 22.9049 371.86C43.0349 405.856 65.6939 428.444 82.2624 444.986C98.5212 461.242 109.309 471.966 107.244 482.404C106.367 486.796 104.509 489.762 101.515 491.474C90.8306 497.691 67.7586 487.195 43.3445 476.073C27.2406 468.771 10.5689 461.185 -3.88341 457.763C-7.13809 456.992 -10.2252 456.453 -13.0694 456.145C-13.5686 456.091 -14 456.485 -14 456.987C-14 457.427 -13.6657 457.794 -13.2283 457.841C-10.4421 458.138 -7.40397 458.634 -4.1931 459.417C10.1559 462.896 26.7761 470.426 42.7768 477.727Z" fill="#848484"/>
<path d="M34.8012 446.99C40.1101 446.99 43.4792 445.516 44.8575 442.624C48.2266 435.366 38.0682 421.531 14.5864 401.345C4.59411 392.807 -5.75991 384.872 -12.7315 379.666C-13.2558 379.274 -14 379.65 -14 380.304C-14 380.556 -13.8865 380.789 -13.6837 380.939C9.58402 398.18 48.8151 430.428 43.5302 441.83C42.4072 444.268 39.3444 445.346 35.0564 445.346C24.0204 445.346 4.631 438.509 -12.8375 431.098C-13.3888 430.864 -14 431.269 -14 431.868C-14 432.201 -13.8015 432.503 -13.4947 432.634C-9.81737 434.206 -5.95949 435.776 -2.05495 437.294C14.4844 443.758 26.8378 446.99 34.8012 446.99Z" fill="#848484"/>
<path d="M264.367 567.509C274.185 554.39 289.067 547.546 304.001 549.143C312.786 550.112 317.23 553.534 317.281 559.409C317.385 578.86 263.798 619.473 239.666 622.325C236.153 622.781 233.466 622.952 231.45 622.952C227.11 622.952 225.662 622.097 225.146 620.842C224.112 618.218 227.833 614.453 234.034 608.179C240.649 601.505 249.691 592.379 255.53 581.484C258.321 576.294 261.267 571.616 264.367 567.509ZM299.764 550.683C286.742 550.683 274.237 557.186 265.608 568.594C262.559 572.586 259.665 577.263 256.926 582.34C250.983 593.463 241.785 602.704 235.119 609.435C230.675 613.941 226.025 618.617 226.645 620.101C227.006 621.013 229.538 621.812 239.563 620.614C250.621 619.302 269.069 609.548 286.587 595.802C304.622 581.656 315.835 567.681 315.783 559.467C315.783 554.619 311.752 551.71 303.949 550.911C302.554 550.74 301.159 550.683 299.764 550.683Z" fill="#848484"/>
<path d="M36.1909 275.538C47.7497 299.141 60.1304 323.43 72.2029 341.161C85.5084 360.603 97.0672 370.067 107.599 370.067C107.701 370.067 107.804 370.067 107.907 370.067C118.387 369.896 127.634 360.546 136.162 341.617C154.091 301.878 175.307 277.59 197.552 271.49C212.758 267.328 228.375 271.433 243.941 283.805C255.911 293.326 264.439 296.462 269.884 293.44C277.949 288.993 278.412 272.402 278.926 253.245C279.491 232.207 280.107 208.318 291.46 197.371C296.752 192.297 303.841 190.415 313.14 191.556C337.49 194.634 360.659 190.529 380.129 179.811C398.623 169.605 412.956 154.04 421.535 134.769C429.704 116.468 432.067 95.8285 428.471 75.1893C427.011 66.7515 424.563 58.4779 421.226 50.3686C421.103 50.0695 420.811 49.875 420.488 49.875C419.913 49.875 419.526 50.4641 419.747 50.9945C431.312 78.8246 431.808 108.036 420.2 134.028C411.775 152.957 397.699 168.237 379.513 178.271C360.299 188.876 337.387 192.867 313.345 189.845C303.738 188.648 296.033 190.7 290.484 196.06C278.617 207.463 278.001 231.751 277.384 253.131C276.922 270.976 276.46 287.853 269.216 291.844C264.284 294.58 256.322 291.445 244.814 282.322C228.837 269.665 212.809 265.446 197.141 269.722C174.434 275.994 152.858 300.567 134.775 340.762C126.504 359.064 117.719 368.072 107.907 368.243C107.804 368.243 107.701 368.243 107.599 368.243C85.2515 368.243 60.7469 322.004 37.5265 274.568C23.5855 246.249 6.73531 226.522 -12.7824 215.76C-13.3328 215.457 -14 215.859 -14 216.488C-14 216.794 -13.8335 217.074 -13.5657 217.222C5.67008 227.825 22.3728 247.356 36.1909 275.538Z" fill="#848484"/>
<path d="M55.5388 202.76C64.4369 202.76 72.2549 201.339 78.6842 198.439C93.3429 191.843 100.646 178.368 100.389 158.241C100.132 138.511 104.916 123.842 114.997 113.437C139.839 87.6237 193.331 92.0586 250.011 96.8346C258.343 97.5169 266.984 98.256 275.471 98.8815C283.752 99.5069 291.364 99.7912 298.359 99.7912C330.299 99.7912 348.404 93.48 352.365 80.9145C355.112 72.1413 350.613 61.5324 343.347 51.1786C343.197 50.9645 342.951 50.8369 342.69 50.8369C342.03 50.8369 341.648 51.5886 342.029 52.1273C349.1 62.1166 353.439 72.2265 350.925 80.4028C346.398 94.8446 321.093 100.53 275.625 97.2326C267.138 96.6072 258.498 95.868 250.165 95.1857C193.176 90.4097 139.325 85.918 113.968 112.243C103.578 123.046 98.6406 138.113 98.8977 158.354C99.1549 177.686 92.1599 190.706 78.1698 196.961C60.1679 205.034 30.9019 201.339 -2.2216 186.84C-5.77065 185.311 -9.27838 183.646 -12.7818 181.925C-13.3432 181.649 -14 182.057 -14 182.683C-14 183.001 -13.8214 183.292 -13.5375 183.435C-9.98428 185.224 -6.38583 186.906 -2.78738 188.432C18.9178 197.87 39.0799 202.76 55.5388 202.76Z" fill="#848484"/>
<path d="M26.1461 148.8C44.6513 147.547 60.3294 136.782 72.8204 116.791L74.8766 113.488C90.0406 89.2247 97.6483 77.0363 108.906 71.9673C120.163 66.8983 135.43 68.7209 165.861 72.4229C169.562 72.8786 173.52 73.3342 177.683 73.8468C213.769 78.1185 239.882 79.5993 257.513 78.2324C274.528 76.9224 284.191 73.1064 287.892 66.2148C290.087 62.1254 290.055 57.178 288.361 51.3727C288.268 51.0538 287.974 50.8369 287.642 50.8369C287.13 50.8369 286.766 51.3354 286.909 51.8268C288.474 57.1984 288.543 61.7097 286.556 65.3605C283.163 71.5686 273.654 75.2707 257.41 76.5237C239.83 77.8906 213.82 76.4668 177.838 72.1382C173.674 71.6256 169.716 71.1699 166.015 70.7143C135.327 66.9552 119.957 65.0757 108.289 70.3726C96.6202 75.6694 88.9097 87.9717 73.5915 112.519L71.5353 115.823C59.3013 135.358 44.0345 145.895 26.0433 147.091C17.0089 147.703 4.00504 146.034 -12.777 137.578C-13.3347 137.297 -14 137.698 -14 138.323C-14 138.636 -13.8218 138.924 -13.5426 139.065C1.51134 146.681 13.5919 148.914 22.5993 148.914C23.8843 148.914 25.0666 148.857 26.1461 148.8Z" fill="#848484"/>
<path d="M47.0018 108.299C54.3322 104.506 59.3559 98.0523 61.8677 89.1074C65.535 76.3468 66.3961 63.4775 65.8501 51.5651C65.8314 51.1567 65.4941 50.8369 65.0852 50.8369C64.6458 50.8369 64.2962 51.2046 64.3163 51.6436C64.8539 63.3648 63.9891 76.0354 60.3811 88.5979C57.9718 97.0898 53.2045 103.204 46.2841 106.771C30.1701 115.087 5.30597 108.581 -12.8557 101.769C-13.4104 101.561 -14 101.971 -14 102.564C-14 102.915 -13.7847 103.229 -13.4557 103.353C-1.29198 107.924 13.9384 112.375 27.676 112.375C34.6989 112.375 41.3629 111.187 47.0018 108.299Z" fill="#848484"/>
<path d="M364.928 92.8744C354.733 115.146 309.577 112.127 309.062 112.07C283.78 112.07 260.301 110.077 239.603 108.254C208.812 105.577 182.192 103.298 162.523 108.937C152.122 111.899 144.038 116.969 137.86 124.374C131.166 132.349 126.635 143.114 123.958 157.184C115.05 204.234 91.7254 209.873 72.9318 214.373C61.6041 217.107 51.8211 219.442 48.5773 230.607C45.6424 240.803 49.0407 261.081 57.3305 282.271C66.1867 304.998 78.2352 322.599 89.5628 329.321C93.2185 331.485 96.8743 332.568 100.324 332.568C106.915 332.568 113.145 328.694 118.603 321.118C126.893 309.612 133.638 297.081 140.177 284.948C152.38 262.277 162.884 242.74 179.206 238.354C189.246 235.676 200.934 238.98 214.836 248.607C233.269 261.309 246.039 265.296 253.917 260.796C263.7 255.214 264.678 237.955 265.708 219.613C267.098 195.006 268.54 169.544 291.401 170.684C296.653 170.911 301.699 171.082 306.59 171.082C356.02 171.082 388.098 158.152 401.948 132.519C412.864 112.412 410.084 88.1466 405.862 71.4C403.913 63.6058 401.479 56.7236 399.314 51.326C399.195 51.0301 398.908 50.8369 398.589 50.8369C398.031 50.8369 397.652 51.4037 397.861 51.9209C400.02 57.2592 402.442 64.1872 404.368 71.9126C411.834 101.703 406.428 120.842 400.61 131.665C385.678 159.234 348.914 171.823 291.452 169.032C280.485 168.519 273.174 173.646 269.106 184.753C265.553 194.379 264.832 207.196 264.163 219.613C263.185 237.442 262.206 254.246 253.196 259.372C245.833 263.588 233.578 259.6 215.609 247.24C201.295 237.385 189.246 233.968 178.794 236.816C161.854 241.373 151.144 261.195 138.787 284.208C132.299 296.283 125.554 308.758 117.316 320.15C109.283 331.258 100.17 333.821 90.1807 327.897C79.162 321.346 67.3194 304.087 58.6177 281.701C50.6369 261.195 47.1356 240.917 49.916 231.233C52.9024 220.98 61.8101 218.816 73.1377 216.139C82.6117 213.86 93.3215 211.297 102.899 203.208C113.969 193.867 121.332 178.943 125.348 157.582C130.342 131.095 141.876 116.627 162.781 110.646C171.534 108.14 181.78 107.229 193.159 107.229C206.958 107.229 222.56 108.596 239.345 110.02C260.095 111.786 283.575 113.836 308.856 113.836H308.907C309.01 113.836 320.647 114.691 333.365 112.64C350.665 109.906 361.684 103.526 366.215 93.7288C371.073 83.1506 368.009 68.9209 357.073 51.2628C356.932 51.035 356.681 50.8939 356.413 50.8939C355.799 50.8939 355.429 51.5778 355.756 52.098C366.465 69.1401 369.506 82.8562 364.928 92.8744Z" fill="#848484"/>
<path d="M368.072 112.754C359.627 124.451 334.088 129.301 294.287 126.79C264.062 124.907 236.052 119.373 235.794 119.316C235.64 119.258 218.545 115.892 199.288 120.057C187.909 122.454 178.023 126.961 169.836 133.466C159.589 141.568 152.02 152.752 147.386 166.674C138.427 193.663 128.386 212.093 116.647 223.048C106.452 232.577 96.5142 235.088 87.246 236.857C73.7042 239.424 69.1216 249.01 67.6799 256.599C64.7965 271.434 71.7476 291.462 82.5605 299.507C85.4954 301.675 88.4818 302.76 91.3652 302.76C94.0427 302.76 96.6687 301.847 99.1402 299.964C109.284 292.318 119.685 277.597 130.703 262.077C151.66 232.463 173.337 201.88 195.117 217.228C198.31 219.454 201.399 221.679 204.334 223.847C220.296 235.43 232.962 244.617 240.943 240.28C245.68 237.713 248.358 230.923 249.336 218.826C251.344 193.834 255.051 175.005 266.637 164.392C274.875 156.803 286.615 154.007 302.577 155.719C347.27 160.569 376.722 151.782 390.161 129.7C400.922 112.012 399.068 89.0173 395.619 72.8126C393.719 63.894 391.14 55.9971 389.06 50.3752C388.948 50.074 388.661 49.875 388.339 49.875C387.801 49.875 387.429 50.4128 387.616 50.9176C389.67 56.4709 392.239 64.3126 394.125 73.212C397.472 89.0744 399.274 111.556 388.874 128.73C375.795 150.241 346.806 158.743 302.731 154.007C286.357 152.238 274.257 155.206 265.658 163.08C253.713 174.092 249.851 193.264 247.791 218.712C246.865 230.01 244.445 236.571 240.274 238.797C233.065 242.677 220.759 233.775 205.209 222.478C202.223 220.31 199.133 218.084 195.941 215.859C185.592 208.556 174.418 210.381 161.803 221.451C150.784 231.037 139.972 246.328 129.519 261.107C118.603 276.57 108.254 291.12 98.3163 298.651C92.498 303.045 87.0401 300.82 83.4358 298.138C73.0863 290.435 66.4441 271.206 69.1731 256.998C70.5633 249.923 74.837 240.965 87.5035 238.568C96.9776 236.743 107.121 234.175 117.625 224.361C129.571 213.177 139.766 194.519 148.828 167.245C153.359 153.608 160.722 142.71 170.66 134.836C178.64 128.502 188.372 124.108 199.494 121.712C206.702 120.171 213.602 119.658 219.42 119.658C225.368 119.658 230.138 120.175 232.891 120.56C234.621 120.802 236.333 121.14 238.051 121.456C245.668 122.856 269.173 126.892 294.184 128.445C335.067 131.013 360.348 126.106 369.256 113.781C378.061 101.684 380.12 85.3085 375.177 66.4791C373.538 60.2585 371.419 54.7284 369.515 50.4011C369.389 50.1153 369.106 49.9321 368.794 49.9321C368.217 49.9321 367.833 50.5303 368.069 51.0571C369.958 55.2702 372.08 60.7677 373.684 66.9356C377.031 79.6597 378.73 97.9756 368.072 112.754Z" fill="#848484"/>
<path d="M203.243 135.352C208.707 132.378 214.785 131.75 220.402 133.638C225.917 135.468 230.054 139.3 232.658 145.018C240.624 162.233 233.577 192.486 228.675 208.957C227.398 213.303 225.815 215.59 223.722 216.105C223.415 216.162 223.108 216.221 222.802 216.221C219.38 216.22 215.448 211.702 210.546 206.097C205.899 200.779 200.639 194.774 194.306 190.542C183.736 183.45 178.527 175.5 178.834 166.807C179.396 151.652 197.115 138.727 203.243 135.352ZM213.814 134.324C210.444 134.324 207.073 135.183 203.907 136.898C197.983 140.158 180.876 152.568 180.365 166.866C180.059 174.873 185.064 182.364 195.124 189.055C201.609 193.345 207.175 199.75 211.669 204.897C216.469 210.387 220.605 215.134 223.414 214.448C224.895 214.048 226.172 212.103 227.244 208.443C238.53 170.583 234.649 152.968 231.278 145.877C228.827 140.616 224.997 137.07 219.942 135.354C217.951 134.668 215.908 134.324 213.814 134.324Z" fill="#848484"/>
<path d="M202.661 164.825C204.716 162.984 207.261 161.204 210.01 161.437C210.535 161.481 211.055 161.59 211.564 161.766C213.334 162.396 214.699 163.656 215.61 165.603C218.139 171.1 215.964 180.548 214.447 185.702C214.194 186.676 213.687 187.993 212.575 188.279C212.423 188.336 212.322 188.337 212.17 188.337C210.906 188.337 209.692 186.905 208.074 185.016C206.708 183.412 205.14 181.579 203.269 180.319C199.88 178.029 198.211 175.395 198.312 172.475C198.421 169.323 200.636 166.638 202.661 164.825ZM209.439 163.14C208.478 163.14 207.567 163.368 206.657 163.884C205.291 164.686 199.98 168.408 199.829 172.588C199.727 174.764 201.144 176.883 204.027 178.83C206.05 180.204 207.77 182.208 209.135 183.812C209.683 184.432 210.305 185.15 210.861 185.698C211.644 186.469 212.652 186.178 212.979 185.129C214.142 181.178 216.57 171.442 214.294 166.346C213.586 164.857 212.575 163.884 211.159 163.426C210.602 163.254 209.995 163.14 209.439 163.14Z" fill="#848484"/>
<path d="M369.154 829.617C367.829 828.159 366.148 827.576 364.212 827.81C357.933 828.589 349.467 838.471 342.815 847.638C342.428 848.171 342.811 848.914 343.47 848.914C343.73 848.914 343.974 848.789 344.127 848.578C350.56 839.698 358.68 830.307 364.365 829.559C365.842 829.384 367.065 829.792 368.084 830.899C371.527 834.611 375.361 841.341 378.868 848.463C379.003 848.739 379.283 848.914 379.59 848.914C380.183 848.914 380.572 848.294 380.311 847.761C376.736 840.475 372.784 833.494 369.154 829.617Z" fill="#848484"/>
<path d="M375.128 561.556C384.922 555.124 401.897 554.951 425.588 561.096C439.082 564.611 450.988 569.252 455.895 571.267C457.44 571.901 459.034 572.401 460.662 572.77C473.64 575.712 475.323 578.327 475.227 580.277C475.124 583.092 471.022 586.939 440.049 592.108C420.819 595.324 397.897 597.965 381.18 599.86L377.025 600.32C374 600.665 371.283 600.837 368.821 600.837C359.437 600.837 353.95 598.31 352.514 593.371C349.899 584.47 361.949 570.228 375.128 561.556ZM395.845 558.397C388.204 558.397 381.128 559.717 375.948 563.106C369.436 567.413 363.333 572.984 359.18 578.44C354.821 584.24 352.976 589.351 354.001 592.911C355.591 598.195 363.487 600.205 376.871 598.654L381.025 598.195C397.743 596.243 420.613 593.659 439.792 590.443C470.201 585.331 473.586 581.598 473.637 580.22C473.637 579.533 472.568 577.023 458.008 573.994C457.901 573.972 457.791 573.941 457.689 573.902C457.51 573.834 442.7 567.351 425.28 562.818C416.306 560.464 405.588 558.397 395.845 558.397Z" fill="#848484"/>
<path d="M403.498 183.883C410.934 179.942 419.797 181.181 425.96 187.092C430.849 191.764 436.146 198.405 433.498 203.922C431.461 208.2 424.992 210.452 416.385 210.452C410.629 210.452 403.906 209.438 396.877 207.355C390.51 205.498 387.301 202.965 387.047 199.7C386.64 195.197 392.191 189.905 403.498 183.883ZM412.514 183.32C409.661 183.32 406.809 183.996 404.16 185.403C393.821 190.919 388.27 195.929 388.575 199.531C388.779 201.951 391.783 204.091 397.284 205.723C413.532 210.564 429.169 209.382 432.174 203.134C433.854 199.531 431.409 194.466 424.992 188.386C421.427 185.065 416.996 183.32 412.514 183.32Z" fill="#848484"/>
<path d="M549.231 831.199C522.434 827.428 506.695 802.172 486.842 770.174C481.287 761.26 475.526 752.003 469.046 742.404C452.793 718.348 434.585 703.891 414.989 699.434C392.718 694.406 368.236 702.177 342.262 722.519C313.716 744.861 272.414 780.802 236.977 814.172C227.402 823.21 215.004 835.119 202.737 847.541C202.234 848.05 202.595 848.913 203.311 848.913C203.526 848.913 203.732 848.827 203.884 848.674C213.908 838.567 225.298 827.448 237.954 815.486C273.34 782.173 314.59 746.232 343.084 723.948C391.484 686.064 433.454 692.635 467.76 743.489C474.189 753.032 479.95 762.288 485.504 771.202C505.615 803.544 521.508 829.028 548.974 832.913C568.017 835.593 579.108 840.781 582.104 848.37C582.231 848.692 582.535 848.913 582.881 848.913C583.416 848.913 583.803 848.4 583.615 847.899C580.512 839.601 568.96 834.001 549.231 831.199Z" fill="#848484"/>
<path d="M402 764.601C392.308 759.847 382.359 760.42 372.41 766.262C347.744 780.696 325.385 797.765 305.949 817.068C294.569 828.359 285.841 838.768 279.276 847.601C278.872 848.145 279.263 848.914 279.942 848.914C280.204 848.914 280.447 848.796 280.603 848.585C295.852 828.119 325.129 795.839 373.077 767.752C382.615 762.196 392.102 761.623 401.333 766.148C419.949 775.255 434.513 803.321 443.436 825.316C446.785 833.467 449.598 841.455 451.875 848.377C451.98 848.698 452.279 848.914 452.617 848.914C453.147 848.914 453.523 848.397 453.357 847.893C451.058 840.908 448.245 832.872 444.872 824.628C431.743 792.266 417.282 772.047 402 764.601Z" fill="#848484"/>
<path d="M164.95 636.368C172.575 631.407 183.001 633.689 187.099 637.567C188.863 639.22 189.486 641.16 188.811 642.985C187.462 646.862 182.275 650.854 173.457 654.789C172.16 655.359 170.863 655.645 169.671 655.645C165.832 655.645 162.823 652.908 161.371 649.714C159.555 645.608 159.866 639.676 164.95 636.368ZM174.962 635.285C171.797 635.285 168.528 636.027 165.675 637.852C161.422 640.589 161.111 645.38 162.719 648.915C164.327 652.451 168.166 655.303 172.835 653.193C181.134 649.486 186.166 645.721 187.359 642.357C187.877 640.931 186.944 639.62 186.01 638.878C183.832 636.825 179.526 635.285 174.962 635.285Z" fill="#848484"/>
<path d="M202.572 789.613C212.812 782.78 237.44 781.68 242.356 786.428C243.38 787.355 243.688 788.57 243.227 789.844C241.23 795.577 219.571 808.085 212.403 811.385C210.867 812.08 209.382 812.427 208 812.37C203.596 812.37 200.166 809.184 198.476 805.363C196.326 800.499 196.735 793.492 202.572 789.613ZM241.333 787.759C236.929 783.532 212.711 784.864 203.341 791.118C198.323 794.476 197.965 800.325 199.859 804.61C201.754 808.895 206.259 812.369 211.789 809.763C220.851 805.536 240.154 793.724 241.742 789.207C241.896 788.802 241.947 788.338 241.333 787.759Z" fill="#848484"/>
<path d="M310.72 443.087C317.304 440.005 327.673 440.733 341.516 445.328C351.729 448.746 360.181 453.061 360.285 453.117C364.639 455.47 364.794 457.712 364.224 459.169C362.513 463.371 351.729 465.838 342.242 466.734C339.287 467.014 335.969 467.182 332.547 467.182C324.926 467.182 316.786 466.342 310.98 463.932C302.685 460.57 302.218 455.415 303.41 451.717C304.603 447.738 307.039 444.824 310.72 443.087ZM320.364 442.975C316.994 442.975 313.883 443.423 311.29 444.656C308.024 446.169 305.847 448.747 304.81 452.277C303.514 456.592 305.744 460.01 311.55 462.42C318.394 465.221 330.11 466.23 342.086 465.109C353.129 464.044 361.632 461.355 362.773 458.553C363.343 457.097 361.321 455.639 359.558 454.686C359.028 454.4 336.535 442.975 320.364 442.975Z" fill="#848484"/>
</g>
</g>
<defs>
<filter id="filter0_d_2296_27768" x="0" y="0" width="458" height="903" filterUnits="userSpaceOnUse" color-interpolation-filters="sRGB">
<feFlood flood-opacity="0" result="BackgroundImageFix"/>
<feColorMatrix in="SourceAlpha" type="matrix" values="0 0 0 0 0 0 0 0 0 0 0 0 0 0 0 0 0 0 127 0" result="hardAlpha"/>
<feOffset dx="6" dy="6"/>
<feGaussianBlur stdDeviation="27"/>
<feColorMatrix type="matrix" values="0 0 0 0 0 0 0 0 0 0 0 0 0 0 0 0 0 0 0.05 0"/>
<feBlend mode="normal" in2="BackgroundImageFix" result="effect1_dropShadow_2296_27768"/>
<feBlend mode="normal" in="SourceGraphic" in2="effect1_dropShadow_2296_27768" result="shape"/>
</filter>
</defs>
</svg>
